<svg width="24" height="22" viewBox="0 0 24 22" fill="none" xmlns="http://www.w3.org/2000/svg">
    <path d="M17.8898 19.8499H6.1098C5.79211 19.8502 5.48351 19.744 5.23333 19.5482C4.98316 19.3524 4.80586 19.0784 4.7298 18.7699L2.07979 8.15992C2.05394 8.05663 2.05198 7.9488 2.07408 7.84464C2.09618 7.74048 2.14175 7.64274 2.20732 7.55884C2.27289 7.47495 2.35673 7.40712 2.45247 7.36052C2.54821 7.31392 2.65332 7.28977 2.75979 7.28992H21.2398C21.3463 7.28977 21.4514 7.31392 21.5471 7.36052C21.6429 7.40712 21.7267 7.47495 21.7923 7.55884C21.8578 7.64274 21.9034 7.74048 21.9255 7.84464C21.9476 7.9488 21.9457 8.05663 21.9198 8.15992L19.2698 18.7699C19.1937 19.0784 19.0164 19.3524 18.7663 19.5482C18.5161 19.744 18.2075 19.8502 17.8898 19.8499V19.8499Z" stroke="#151515" stroke-width="2.5" stroke-linecap="round" stroke-linejoin="round"/>
    <path d="M9.79978 2.14996L6.89978 7.28996" stroke="#151515" stroke-width="2.5" stroke-linecap="round" stroke-linejoin="round"/>
    <path d="M13.8799 2.14996L16.7899 7.28996" stroke="#151515" stroke-width="2.5" stroke-linecap="round" stroke-linejoin="round"/>
</svg>
