<svg width="22" height="22" viewBox="0 0 22 22" fill="none" xmlns="http://www.w3.org/2000/svg">
    <path d="M22 19.5556C22 20.2039 21.7425 20.8256 21.284 21.284C20.8256 21.7425 20.2039 22 19.5556 22H2.44444C1.79614 22 1.17438 21.7425 0.715961 21.284C0.257539 20.8256 0 20.2039 0 19.5556V2.44444C0 1.79614 0.257539 1.17438 0.715961 0.715961C1.17438 0.257539 1.79614 0 2.44444 0L19.5556 0C20.2039 0 20.8256 0.257539 21.284 0.715961C21.7425 1.17438 22 1.79614 22 2.44444V19.5556Z" fill="#6A983C"/>
    <path d="M17.8936 3.88762C17.5536 3.66736 17.1401 3.59102 16.7439 3.67535C16.3477 3.75968 16.0012 3.99779 15.7804 4.33739L9.12781 14.5912L6.05453 11.7496C5.90781 11.6102 5.73486 11.5014 5.54573 11.4294C5.3566 11.3574 5.15505 11.3238 4.9528 11.3303C4.75055 11.3369 4.55161 11.3836 4.36755 11.4677C4.18349 11.5518 4.01797 11.6716 3.88059 11.8202C3.74322 11.9687 3.63673 12.1431 3.56731 12.3332C3.4979 12.5233 3.46693 12.7253 3.47622 12.9274C3.48551 13.1296 3.53486 13.3279 3.62142 13.5108C3.70797 13.6937 3.83 13.8576 3.98042 13.9929L8.38592 18.0666C8.67925 18.3386 9.05203 18.473 9.42237 18.473C9.83364 18.473 10.3598 18.3007 10.7051 17.7769C10.908 17.4677 18.344 6.00084 18.344 6.00084C18.4532 5.83251 18.5281 5.64433 18.5646 5.44703C18.6011 5.24973 18.5983 5.04718 18.5565 4.85094C18.5146 4.65471 18.4346 4.46864 18.3208 4.30335C18.2071 4.13806 18.0619 3.99679 17.8936 3.88762Z" fill="white"/>
</svg>
