<svg width="327" height="22" viewBox="0 0 327 22" fill="none" xmlns="http://www.w3.org/2000/svg">
    <path d="M15.1914 15.293C14.9896 15.293 14.791 15.2832 14.5957 15.2637C14.4004 15.2507 14.2083 15.2409 14.0195 15.2344C13.8438 14.9219 13.7005 14.6257 13.5898 14.3457C13.4792 14.0592 13.3717 13.7402 13.2676 13.3887C13.1764 13.3757 12.9421 13.3659 12.5645 13.3594C12.1934 13.3529 11.7507 13.3464 11.2363 13.3398C10.722 13.3333 10.2044 13.3301 9.68359 13.3301C9.16276 13.3236 8.70052 13.3203 8.29688 13.3203C7.89974 13.3138 7.63281 13.3105 7.49609 13.3105C7.35938 13.6621 7.23893 13.9551 7.13477 14.1895C7.03711 14.4238 6.91341 14.7428 6.76367 15.1465C6.62044 15.166 6.46745 15.1823 6.30469 15.1953C6.14844 15.2083 5.96289 15.2148 5.74805 15.2148C5.66341 15.2148 5.47135 15.2018 5.17188 15.1758C4.87891 15.1497 4.52734 15.1139 4.11719 15.0684C3.70703 15.0228 3.28385 14.9772 2.84766 14.9316C2.41146 14.8861 2.00781 14.8438 1.63672 14.8047C1.27214 14.7591 0.985677 14.7266 0.777344 14.707C1.02474 14.2057 1.67578 12.8255 2.73047 10.5664C3.78516 8.30078 5.21745 5.1888 7.02734 1.23047C8.01042 1.17839 9.08464 1.10026 10.25 0.996094C11.4219 0.885417 12.6393 0.830078 13.9023 0.830078C14.2083 0.830078 14.5111 0.839844 14.8105 0.859375C15.1165 0.878906 15.403 0.934245 15.6699 1.02539C15.6764 1.05143 15.7676 1.27604 15.9434 1.69922C16.1257 2.1224 16.3633 2.67904 16.6562 3.36914C16.9557 4.05924 17.2878 4.83073 17.6523 5.68359C18.0169 6.52995 18.388 7.39909 18.7656 8.29102C19.1497 9.17643 19.5176 10.0293 19.8691 10.8496C20.2207 11.6634 20.5299 12.3796 20.7969 12.998C20.9466 13.3952 21.0931 13.724 21.2363 13.9844C21.3861 14.2383 21.513 14.4824 21.6172 14.7168C20.4062 14.8275 19.4102 14.9219 18.6289 15C17.8542 15.0716 17.2422 15.127 16.793 15.166C16.3438 15.2051 16.0117 15.2344 15.7969 15.2539C15.582 15.2734 15.4355 15.2832 15.3574 15.2832C15.2858 15.2897 15.2305 15.293 15.1914 15.293ZM8.96094 9.72656H12.0566C11.8288 8.99089 11.5944 8.24544 11.3535 7.49023C11.1191 6.73503 10.888 5.91471 10.6602 5.0293C10.2826 6.20768 9.95052 7.16146 9.66406 7.89062C9.38411 8.61979 9.14974 9.23177 8.96094 9.72656ZM23.5996 18.4473C23.5931 18.265 23.5866 18.0729 23.5801 17.8711C23.5736 17.6693 23.5703 17.4674 23.5703 17.2656L24.0586 5.58594C24.3255 5.50781 24.6413 5.43294 25.0059 5.36133C25.377 5.2832 25.7513 5.21484 26.1289 5.15625C26.5065 5.09766 26.8353 5.04883 27.1152 5.00977L28.1699 6.95312C28.8079 6.15885 29.6413 5.60221 30.6699 5.2832C31.7051 4.96419 32.7988 4.80469 33.9512 4.80469C35.0775 4.80469 36.0898 5.01302 36.9883 5.42969C37.8932 5.83984 38.6061 6.39974 39.127 7.10938C39.6543 7.81901 39.918 8.6263 39.918 9.53125C39.918 10.4102 39.7357 11.2077 39.3711 11.9238C39.013 12.6335 38.5215 13.2454 37.8965 13.7598C37.2715 14.2741 36.5553 14.6712 35.748 14.9512C34.9473 15.2246 34.1042 15.3613 33.2188 15.3613C32.444 15.3613 31.7018 15.2604 30.9922 15.0586C30.2826 14.8633 29.6836 14.6094 29.1953 14.2969V14.3652C29.1953 14.4694 29.1823 14.7135 29.1562 15.0977C29.1367 15.4883 29.1139 15.944 29.0879 16.4648C29.0684 16.9922 29.0586 17.5163 29.0586 18.0371C28.3815 18.1022 27.6816 18.1673 26.959 18.2324C26.2363 18.2975 25.582 18.3496 24.9961 18.3887C24.4102 18.4277 23.9772 18.4473 23.6973 18.4473H23.5996ZM31.6758 12.7246C32.1771 12.7246 32.6133 12.5879 32.9844 12.3145C33.3555 12.0345 33.6419 11.6797 33.8438 11.25C34.0456 10.8138 34.1465 10.3613 34.1465 9.89258C34.1465 9.17643 33.9316 8.6263 33.502 8.24219C33.0788 7.85807 32.5579 7.66602 31.9395 7.66602C31.3079 7.66602 30.8132 7.76693 30.4551 7.96875C30.1035 8.17057 29.8496 8.42773 29.6934 8.74023C29.5371 9.04622 29.4395 9.36849 29.4004 9.70703C29.3613 10.0391 29.3418 10.3385 29.3418 10.6055C29.3418 11.1654 29.4427 11.6016 29.6445 11.9141C29.8529 12.2201 30.1328 12.4316 30.4844 12.5488C30.8424 12.666 31.2396 12.7246 31.6758 12.7246ZM49.5078 15.3711C48.6029 15.3711 47.7109 15.2897 46.832 15.127C45.9596 14.9642 45.1686 14.6875 44.459 14.2969C43.7493 13.8997 43.1829 13.3626 42.7598 12.6855C42.3366 12.0085 42.125 11.1523 42.125 10.1172C42.125 9.04948 42.3496 8.17057 42.7988 7.48047C43.2546 6.78385 43.8503 6.24023 44.5859 5.84961C45.3216 5.45898 46.1257 5.18555 46.998 5.0293C47.8704 4.86654 48.7233 4.78516 49.5566 4.78516C50.2207 4.78516 50.9076 4.86654 51.6172 5.0293C52.3268 5.19206 52.9844 5.45247 53.5898 5.81055C54.1953 6.16862 54.6803 6.63411 55.0449 7.20703C55.4095 7.77995 55.5755 8.47656 55.543 9.29688C55.543 9.375 55.5365 9.44987 55.5234 9.52148L55.4355 10.7227H47.5156C47.6719 11.3151 48.0495 11.7741 48.6484 12.0996C49.2474 12.4251 49.9961 12.5879 50.8945 12.5879C51.4479 12.5879 52.0469 12.5195 52.6914 12.3828C53.3359 12.2461 54.013 12.0312 54.7227 11.7383H55.25L55.0645 14.2188C54.804 14.4141 54.3939 14.5996 53.834 14.7754C53.2806 14.9512 52.6296 15.0944 51.8809 15.2051C51.1322 15.3158 50.3411 15.3711 49.5078 15.3711ZM51.2363 8.90625C51.2298 8.26823 51.0801 7.82878 50.7871 7.58789C50.5007 7.34701 50.1165 7.22656 49.6348 7.22656C49.0553 7.22656 48.6061 7.39583 48.2871 7.73438C47.9746 8.07292 47.7826 8.46354 47.7109 8.90625H51.2363ZM68.7656 15.1074V14.1797L68.7949 11.9336H64.3418L64.1172 15L58.2578 14.9805C58.2578 14.5703 58.2643 14.1146 58.2773 13.6133C58.2969 13.1055 58.3164 12.6139 58.3359 12.1387C58.3359 12.0866 58.3392 12.0247 58.3457 11.9531C58.3522 11.8815 58.3555 11.8229 58.3555 11.7773L58.5117 8.32031L58.7754 4.94141L64.4297 5.01953H64.5859L64.4199 8.47656H68.9902L69.166 5.12695H70.5625L75.2988 5.00977C75.2988 5.04232 75.2891 5.21484 75.2695 5.52734C75.2565 5.83984 75.237 6.22396 75.2109 6.67969C75.1849 7.13542 75.1589 7.60091 75.1328 8.07617C75.1068 8.54492 75.084 8.95833 75.0645 9.31641C75.0514 9.67448 75.0449 9.9056 75.0449 10.0098L74.7715 15.0391L71.1777 15.0879C70.8132 15.0944 70.3997 15.0977 69.9375 15.0977C69.4818 15.1042 69.0911 15.1074 68.7656 15.1074ZM92.9551 11.9922H94.332C94.2539 14.5117 94.1855 16.403 94.127 17.666L88.6777 17.6465L88.8438 15L82.1348 15.0488L81.8613 17.5684L76.3633 17.6172L76.832 12.1973L76.9395 12.0996H79.0781L79.957 5.16602L80.0645 5.06836L93.1602 4.95117L92.9551 11.9922ZM84.6738 8.25195L84.1465 12.0605H87.8086L87.9648 8.25195H84.6738ZM102.086 15.3809C101.357 15.3809 100.628 15.2832 99.8984 15.0879C99.1693 14.8991 98.502 14.6029 97.8965 14.1992C97.2975 13.7891 96.8158 13.2682 96.4512 12.6367C96.0931 11.9987 95.9141 11.237 95.9141 10.3516C95.9141 9.10807 96.194 8.06641 96.7539 7.22656C97.3203 6.38021 98.0592 5.74219 98.9707 5.3125C99.8887 4.88281 100.875 4.66797 101.93 4.66797C103.017 4.66797 103.928 4.79818 104.664 5.05859C105.406 5.3125 106.064 5.80729 106.637 6.54297L106.656 4.46289L111.07 4.83398L111.041 14.7852L107.369 15.0586L106.773 13.1348C106.396 13.7467 105.823 14.2741 105.055 14.7168C104.286 15.1595 103.297 15.3809 102.086 15.3809ZM103.746 12.4219C105.224 12.3893 105.963 11.6211 105.963 10.1172C105.963 9.4987 105.774 8.98112 105.396 8.56445C105.019 8.14128 104.492 7.92969 103.814 7.92969C103.105 7.92969 102.561 8.17057 102.184 8.65234C101.812 9.13411 101.627 9.70378 101.627 10.3613C101.627 11.084 101.842 11.6081 102.271 11.9336C102.701 12.2591 103.193 12.4219 103.746 12.4219ZM128.18 14.9609C128.18 14.8112 128.186 14.541 128.199 14.1504C128.212 13.7533 128.229 13.2878 128.248 12.7539C128.268 12.2201 128.29 11.6732 128.316 11.1133L124.928 14.9121C124.648 14.9251 124.251 14.9349 123.736 14.9414C123.229 14.9414 122.688 14.9414 122.115 14.9414C121.549 14.9349 121.021 14.9284 120.533 14.9219C120.051 14.9089 119.697 14.8991 119.469 14.8926L118.668 14.873V13.8574L119.02 4.96094C120.081 4.92188 120.934 4.90234 121.578 4.90234C122.223 4.90234 122.727 4.91211 123.092 4.93164C123.456 4.94466 123.746 4.96094 123.961 4.98047L123.912 5.85938C123.873 6.71224 123.834 7.56836 123.795 8.42773C123.762 9.2806 123.72 10.1335 123.668 10.9863C123.766 10.8561 123.964 10.6087 124.264 10.2441C124.57 9.87956 124.928 9.45312 125.338 8.96484C125.748 8.47656 126.168 7.97852 126.598 7.4707C127.034 6.95638 127.434 6.48763 127.799 6.06445C128.163 5.63477 128.447 5.30273 128.648 5.06836H128.658L133.863 5.00977L133.492 14.1309V14.1992C133.492 14.2969 133.492 14.4238 133.492 14.5801C133.499 14.7298 133.505 14.8568 133.512 14.9609H128.18ZM146.93 15.1074V14.1797L146.959 11.9336H142.506L142.281 15L136.422 14.9805C136.422 14.5703 136.428 14.1146 136.441 13.6133C136.461 13.1055 136.48 12.6139 136.5 12.1387C136.5 12.0866 136.503 12.0247 136.51 11.9531C136.516 11.8815 136.52 11.8229 136.52 11.7773L136.676 8.32031L136.939 4.94141L142.594 5.01953H142.75L142.584 8.47656H147.154L147.33 5.12695H148.727L153.463 5.00977C153.463 5.04232 153.453 5.21484 153.434 5.52734C153.421 5.83984 153.401 6.22396 153.375 6.67969C153.349 7.13542 153.323 7.60091 153.297 8.07617C153.271 8.54492 153.248 8.95833 153.229 9.31641C153.215 9.67448 153.209 9.9056 153.209 10.0098L152.936 15.0391L149.342 15.0879C148.977 15.0944 148.564 15.0977 148.102 15.0977C147.646 15.1042 147.255 15.1074 146.93 15.1074ZM164.713 15.3809C163.899 15.3809 163.076 15.3288 162.242 15.2246C161.409 15.1204 160.615 14.9512 159.859 14.7168C159.104 14.4824 158.43 14.1667 157.838 13.7695C157.245 13.3724 156.777 12.8809 156.432 12.2949C156.087 11.709 155.914 11.0156 155.914 10.2148C155.914 9.20573 156.174 8.35612 156.695 7.66602C157.216 6.9694 157.906 6.40951 158.766 5.98633C159.625 5.55664 160.569 5.2474 161.598 5.05859C162.633 4.86328 163.661 4.76562 164.684 4.76562C165.042 4.76562 165.507 4.79818 166.08 4.86328C166.653 4.92188 167.229 4.99674 167.809 5.08789C168.395 5.17904 168.886 5.26693 169.283 5.35156L169.039 8.48633C168.564 8.39518 168.121 8.32357 167.711 8.27148C167.307 8.2194 166.839 8.19336 166.305 8.19336C165.556 8.19336 164.853 8.24544 164.195 8.34961C163.544 8.45378 163.014 8.64583 162.604 8.92578C162.2 9.19922 161.998 9.5931 161.998 10.1074C161.998 10.6803 162.278 11.1556 162.838 11.5332C163.398 11.9043 164.293 12.0898 165.523 12.0898C165.921 12.0898 166.419 12.0671 167.018 12.0215C167.623 11.9759 168.199 11.9076 168.746 11.8164L168.814 14.8926C168.281 15.0358 167.678 15.153 167.008 15.2441C166.337 15.3353 165.572 15.3809 164.713 15.3809ZM174.791 15.0684L175.035 8.59375H171.441L171.646 5.41992V5.16602L171.754 5.06836L184.371 5.00977L184.596 5.10742L184.352 8.64258H180.68L180.289 15.0293L176.158 15.0684H174.791ZM186.607 18.4473C186.601 18.265 186.594 18.0729 186.588 17.8711C186.581 17.6693 186.578 17.4674 186.578 17.2656L187.066 5.58594C187.333 5.50781 187.649 5.43294 188.014 5.36133C188.385 5.2832 188.759 5.21484 189.137 5.15625C189.514 5.09766 189.843 5.04883 190.123 5.00977L191.178 6.95312C191.816 6.15885 192.649 5.60221 193.678 5.2832C194.713 4.96419 195.807 4.80469 196.959 4.80469C198.085 4.80469 199.098 5.01302 199.996 5.42969C200.901 5.83984 201.614 6.39974 202.135 7.10938C202.662 7.81901 202.926 8.6263 202.926 9.53125C202.926 10.4102 202.743 11.2077 202.379 11.9238C202.021 12.6335 201.529 13.2454 200.904 13.7598C200.279 14.2741 199.563 14.6712 198.756 14.9512C197.955 15.2246 197.112 15.3613 196.227 15.3613C195.452 15.3613 194.71 15.2604 194 15.0586C193.29 14.8633 192.691 14.6094 192.203 14.2969V14.3652C192.203 14.4694 192.19 14.7135 192.164 15.0977C192.145 15.4883 192.122 15.944 192.096 16.4648C192.076 16.9922 192.066 17.5163 192.066 18.0371C191.389 18.1022 190.689 18.1673 189.967 18.2324C189.244 18.2975 188.59 18.3496 188.004 18.3887C187.418 18.4277 186.985 18.4473 186.705 18.4473H186.607ZM194.684 12.7246C195.185 12.7246 195.621 12.5879 195.992 12.3145C196.363 12.0345 196.65 11.6797 196.852 11.25C197.053 10.8138 197.154 10.3613 197.154 9.89258C197.154 9.17643 196.939 8.6263 196.51 8.24219C196.087 7.85807 195.566 7.66602 194.947 7.66602C194.316 7.66602 193.821 7.76693 193.463 7.96875C193.111 8.17057 192.857 8.42773 192.701 8.74023C192.545 9.04622 192.447 9.36849 192.408 9.70703C192.369 10.0391 192.35 10.3385 192.35 10.6055C192.35 11.1654 192.451 11.6016 192.652 11.9141C192.861 12.2201 193.141 12.4316 193.492 12.5488C193.85 12.666 194.247 12.7246 194.684 12.7246ZM208.131 21.4844L206.441 18.75C206.585 18.75 206.861 18.6947 207.271 18.584C207.682 18.4798 208.131 18.3236 208.619 18.1152C209.114 17.9134 209.563 17.666 209.967 17.373C210.37 17.0866 210.641 16.7643 210.777 16.4062L209.957 14.9316C209.658 14.3978 209.312 13.7533 208.922 12.998C208.531 12.2428 208.131 11.4551 207.721 10.6348C207.311 9.81445 206.917 9.02995 206.539 8.28125C206.161 7.52604 205.833 6.875 205.553 6.32812C205.279 5.78125 205.087 5.41667 204.977 5.23438L210.68 4.99023L213.424 11.3477C213.515 11.1068 213.629 10.7747 213.766 10.3516C213.909 9.92188 214.062 9.44987 214.225 8.93555C214.394 8.42122 214.563 7.9069 214.732 7.39258C214.902 6.87826 215.058 6.40951 215.201 5.98633C215.344 5.56315 215.465 5.23438 215.562 5C215.699 4.98698 215.836 4.98047 215.973 4.98047C216.116 4.98047 216.262 4.98047 216.412 4.98047L220.621 5.13672L220.104 6.38672L216.1 15.5762C215.774 16.3053 215.4 17.0215 214.977 17.7246C214.56 18.4277 214.049 19.0625 213.443 19.6289C212.844 20.1953 212.112 20.6445 211.246 20.9766C210.387 21.3151 209.348 21.4844 208.131 21.4844ZM225.904 15.0879L222.223 15.0586L222.916 5.0293H229.381L232.164 9.91211L235.338 4.95117L241.051 5.07812L241.676 14.1309L241.744 14.9902C241.314 15.0163 240.79 15.0358 240.172 15.0488C239.553 15.0618 238.935 15.0716 238.316 15.0781C237.704 15.0846 237.184 15.0879 236.754 15.0879L236.48 11.5918L236.363 10.3027L232.984 14.9316L232.369 14.9707H230.611C230.611 14.9707 230.517 14.8177 230.328 14.5117C230.139 14.1992 229.902 13.8086 229.615 13.3398C229.335 12.8711 229.049 12.3893 228.756 11.8945C228.469 11.3932 228.229 10.9538 228.033 10.5762L227.643 15.0488C227.376 15.0618 227.099 15.0716 226.812 15.0781C226.526 15.0846 226.223 15.0879 225.904 15.0879ZM251.5 15.3711C250.595 15.3711 249.703 15.2897 248.824 15.127C247.952 14.9642 247.161 14.6875 246.451 14.2969C245.742 13.8997 245.175 13.3626 244.752 12.6855C244.329 12.0085 244.117 11.1523 244.117 10.1172C244.117 9.04948 244.342 8.17057 244.791 7.48047C245.247 6.78385 245.842 6.24023 246.578 5.84961C247.314 5.45898 248.118 5.18555 248.99 5.0293C249.863 4.86654 250.715 4.78516 251.549 4.78516C252.213 4.78516 252.9 4.86654 253.609 5.0293C254.319 5.19206 254.977 5.45247 255.582 5.81055C256.188 6.16862 256.673 6.63411 257.037 7.20703C257.402 7.77995 257.568 8.47656 257.535 9.29688C257.535 9.375 257.529 9.44987 257.516 9.52148L257.428 10.7227H249.508C249.664 11.3151 250.042 11.7741 250.641 12.0996C251.24 12.4251 251.988 12.5879 252.887 12.5879C253.44 12.5879 254.039 12.5195 254.684 12.3828C255.328 12.2461 256.005 12.0312 256.715 11.7383H257.242L257.057 14.2188C256.796 14.4141 256.386 14.5996 255.826 14.7754C255.273 14.9512 254.622 15.0944 253.873 15.2051C253.124 15.3158 252.333 15.3711 251.5 15.3711ZM253.229 8.90625C253.222 8.26823 253.072 7.82878 252.779 7.58789C252.493 7.34701 252.109 7.22656 251.627 7.22656C251.048 7.22656 250.598 7.39583 250.279 7.73438C249.967 8.07292 249.775 8.46354 249.703 8.90625H253.229ZM270.758 15.1074V14.1797L270.787 11.9336H266.334L266.109 15L260.25 14.9805C260.25 14.5703 260.257 14.1146 260.27 13.6133C260.289 13.1055 260.309 12.6139 260.328 12.1387C260.328 12.0866 260.331 12.0247 260.338 11.9531C260.344 11.8815 260.348 11.8229 260.348 11.7773L260.504 8.32031L260.768 4.94141L266.422 5.01953H266.578L266.412 8.47656H270.982L271.158 5.12695H272.555L277.291 5.00977C277.291 5.04232 277.281 5.21484 277.262 5.52734C277.249 5.83984 277.229 6.22396 277.203 6.67969C277.177 7.13542 277.151 7.60091 277.125 8.07617C277.099 8.54492 277.076 8.95833 277.057 9.31641C277.044 9.67448 277.037 9.9056 277.037 10.0098L276.764 15.0391L273.17 15.0879C272.805 15.0944 272.392 15.0977 271.93 15.0977C271.474 15.1042 271.083 15.1074 270.758 15.1074ZM282.623 15.0684L282.867 8.59375H279.273L279.479 5.41992V5.16602L279.586 5.06836L292.203 5.00977L292.428 5.10742L292.184 8.64258H288.512L288.121 15.0293L283.99 15.0684H282.623ZM301.822 15.3613C300.924 15.3613 300.029 15.2897 299.137 15.1465C298.245 15.0098 297.431 14.7559 296.695 14.3848C295.96 14.0137 295.37 13.4928 294.928 12.8223C294.485 12.1452 294.264 11.2695 294.264 10.1953C294.264 8.82161 294.609 7.72135 295.299 6.89453C295.995 6.06771 296.952 5.47201 298.17 5.10742C299.394 4.73633 300.797 4.55078 302.379 4.55078C303.766 4.55078 305.006 4.75911 306.1 5.17578C307.193 5.58594 308.053 6.18815 308.678 6.98242C309.309 7.77018 309.625 8.73047 309.625 9.86328C309.625 10.8138 309.465 11.6178 309.146 12.2754C308.834 12.9264 308.408 13.457 307.867 13.8672C307.333 14.2708 306.728 14.5833 306.051 14.8047C305.38 15.0195 304.68 15.166 303.951 15.2441C303.222 15.3223 302.512 15.3613 301.822 15.3613ZM301.979 12.6953C302.792 12.6953 303.388 12.4284 303.766 11.8945C304.15 11.3542 304.342 10.6901 304.342 9.90234C304.342 9.21875 304.133 8.63932 303.717 8.16406C303.307 7.6888 302.711 7.45117 301.93 7.45117C301.396 7.45117 300.963 7.58464 300.631 7.85156C300.299 8.11849 300.055 8.45703 299.898 8.86719C299.749 9.27083 299.674 9.6875 299.674 10.1172C299.674 10.9375 299.859 11.5723 300.23 12.0215C300.608 12.4707 301.191 12.6953 301.979 12.6953ZM312.613 15.0391C312.366 15.0391 312.171 14.9935 312.027 14.9023C312.034 14.7526 312.04 14.6126 312.047 14.4824C312.053 14.3522 312.06 14.2155 312.066 14.0723L312.057 14.0527L312.271 10.1953L312.252 10.1855L312.438 7.31445L312.486 6.33789L312.535 5.55664H312.545L312.564 5.14648L320.963 4.98047C321.725 4.98047 322.457 5.02279 323.16 5.10742C323.863 5.18555 324.488 5.32552 325.035 5.52734C325.589 5.72917 326.015 6.01562 326.314 6.38672C326.614 6.7513 326.741 7.2168 326.695 7.7832C326.663 8.23242 326.467 8.62956 326.109 8.97461C325.758 9.31966 325.257 9.55729 324.605 9.6875C325.283 9.79167 325.836 10.0488 326.266 10.459C326.702 10.8626 326.92 11.3379 326.92 11.8848C326.92 12.5879 326.65 13.1738 326.109 13.6426C325.576 14.1113 324.84 14.4629 323.902 14.6973C322.965 14.9251 321.894 15.0391 320.689 15.0391H312.613ZM317.604 9.01367H319.635C320.182 9.01367 320.644 8.95182 321.021 8.82812C321.406 8.70443 321.598 8.40169 321.598 7.91992C321.598 7.53581 321.448 7.28516 321.148 7.16797C320.849 7.04427 320.445 6.98242 319.938 6.98242H317.73L317.604 9.01367ZM317.467 12.9492H319.479C320.025 12.9492 320.488 12.8939 320.865 12.7832C321.243 12.666 321.432 12.3665 321.432 11.8848C321.432 11.5007 321.279 11.2435 320.973 11.1133C320.673 10.9766 320.27 10.9082 319.762 10.9082H317.545L317.467 12.9492Z" fill="black"/>
</svg>

