<svg width="16" height="16" viewBox="0 0 16 16" fill="none" xmlns="http://www.w3.org/2000/svg">
    <path fill-rule="evenodd" clip-rule="evenodd" d="M7.34191 2.12663C7.38796 1.9806 7.47936 1.85306 7.60284 1.76252C7.72633 1.67198 7.87546 1.62317 8.02857 1.62317C8.18169 1.62317 8.33082 1.67198 8.4543 1.76252C8.57779 1.85306 8.66919 1.9806 8.71524 2.12663L9.95524 5.93996H13.9552C14.1138 5.93397 14.27 5.98006 14.4 6.07119C14.5299 6.16232 14.6264 6.29348 14.6748 6.44464C14.7232 6.5958 14.7207 6.75863 14.6678 6.90827C14.6149 7.0579 14.5145 7.18611 14.3819 7.2733L11.1352 9.62663L12.3752 13.4466C12.4243 13.5921 12.4255 13.7495 12.3788 13.8958C12.332 14.042 12.2397 14.1695 12.1154 14.2596C11.991 14.3497 11.8412 14.3977 11.6876 14.3966C11.5341 14.3954 11.3849 14.3452 11.2619 14.2533L8.00857 11.8733L4.76191 14.2333C4.63891 14.3252 4.48975 14.3754 4.3362 14.3766C4.18266 14.3777 4.03277 14.3297 3.90842 14.2396C3.78408 14.1495 3.69179 14.022 3.64505 13.8758C3.5983 13.7295 3.59953 13.5721 3.64857 13.4266L4.88857 9.60663L1.64191 7.2533C1.5093 7.16611 1.40888 7.0379 1.35599 6.88827C1.3031 6.73863 1.30066 6.5758 1.34902 6.42464C1.39739 6.27348 1.49392 6.14232 1.62385 6.05119C1.75379 5.96006 1.90998 5.91397 2.06857 5.91996H6.06857L7.34191 2.12663Z" fill="#151515"/>
</svg>
