<svg width="20" height="20" viewBox="0 0 20 20" fill="none" xmlns="http://www.w3.org/2000/svg">
    <path d="M2.19963 2.37896C2.06365 2.0617 1.69623 1.91472 1.37896 2.0507C1.0617 2.18667 0.91472 2.5541 1.0507 2.87136L2.19963 2.37896ZM7.49304 8.23991C7.6813 7.95066 7.59936 7.5635 7.31004 7.37525C7.02071 7.187 6.63356 7.26891 6.4453 7.55825L7.49304 8.23991ZM5.26796 9.36766C5.0797 9.65691 5.16164 10.0441 5.45096 10.2323C5.74029 10.4206 6.12744 10.3387 6.3157 10.0493L5.26796 9.36766ZM18.8663 2.87136C19.0022 2.5541 18.8553 2.18667 18.538 2.0507C18.2207 1.91472 17.8533 2.0617 17.7173 2.37896L18.8663 2.87136ZM16.5999 7.75783C16.844 8.00191 17.2397 8.00191 17.4837 7.75783C17.7278 7.51375 17.7278 7.118 17.4837 6.87391L16.5999 7.75783ZM9.3335 10.5418C9.3335 10.887 9.61333 11.1668 9.9585 11.1668C10.3037 11.1668 10.5835 10.887 10.5835 10.5418H9.3335ZM13.6013 10.0493C13.7896 10.3387 14.1767 10.4206 14.466 10.2323C14.7553 10.0441 14.8372 9.65691 14.649 9.36766L13.6013 10.0493ZM4.5671 6.50783C4.81118 6.26375 4.81118 5.868 4.5671 5.62391C4.32303 5.37983 3.9273 5.37983 3.68322 5.62391L4.5671 6.50783ZM2.43322 6.87391C2.18915 7.118 2.18915 7.51375 2.43322 7.75783C2.6773 8.00191 3.07303 8.00191 3.3171 7.75783L2.43322 6.87391ZM9.9585 7.8335C7.27192 7.8335 5.34294 6.49566 4.06233 5.11655C3.4222 4.42719 2.95287 3.73586 2.64399 3.21695C2.4899 2.95808 2.37672 2.74376 2.303 2.5963C2.26615 2.52263 2.23924 2.46579 2.22205 2.42859C2.21347 2.41 2.20732 2.39633 2.20359 2.38794C2.20172 2.38375 2.20029 2.38047 2.19963 2.37896C2.19963 2.37896 2.19963 2.37896 1.62516 2.62516C1.0507 2.87136 1.0507 2.87136 1.0507 2.87136L1.05122 2.87258L1.05198 2.87433C1.05255 2.87568 1.0533 2.87738 1.05419 2.87943C1.05598 2.88352 1.0584 2.88901 1.06144 2.89585C1.06752 2.90954 1.07612 2.92862 1.08727 2.95275C1.10955 3.00101 1.14205 3.0695 1.18496 3.15532C1.27074 3.32688 1.39845 3.56829 1.56988 3.8563C1.91204 4.43113 2.43229 5.19816 3.14633 5.96708C4.57405 7.50466 6.81174 9.0835 9.9585 9.0835V7.8335ZM12.7189 7.3175C11.9102 7.63583 10.9932 7.8335 9.9585 7.8335V9.0835C11.157 9.0835 12.229 8.85366 13.1767 8.48066L12.7189 7.3175ZM6.4453 7.55825L5.26796 9.36766L6.3157 10.0493L7.49304 8.23991L6.4453 7.55825ZM18.2918 2.62516C17.7173 2.37896 17.7173 2.37896 17.7173 2.37896L17.7177 2.37816L17.7169 2.37996C17.716 2.38202 17.7143 2.38579 17.7119 2.3912C17.7071 2.40202 17.6992 2.4194 17.6883 2.44287C17.6664 2.4898 17.6323 2.56095 17.5857 2.65239C17.4923 2.83539 17.3493 3.09875 17.1547 3.41116C16.7642 4.0378 16.1721 4.8518 15.3641 5.61016L16.2196 6.52158C17.1271 5.66975 17.7849 4.76339 18.2156 4.07221C18.4315 3.72573 18.5918 3.43083 18.6992 3.22029C18.7529 3.11495 18.7935 3.03052 18.8212 2.97105C18.8351 2.94132 18.8457 2.91781 18.8532 2.90103C18.857 2.89264 18.86 2.88593 18.8622 2.88096C18.8632 2.87848 18.8641 2.87644 18.8648 2.87483L18.8657 2.87276L18.8663 2.87136C18.8663 2.87136 18.8663 2.87136 18.2918 2.62516ZM15.3641 5.61016C14.6482 6.282 13.7701 6.90375 12.7189 7.3175L13.1767 8.48066C14.4047 7.99733 15.414 7.27766 16.2196 6.52158L15.3641 5.61016ZM15.3499 6.50783L16.5999 7.75783L17.4837 6.87391L16.2337 5.62391L15.3499 6.50783ZM9.3335 8.4585V10.5418H10.5835V8.4585H9.3335ZM12.424 8.23991L13.6013 10.0493L14.649 9.36766L13.4717 7.55825L12.424 8.23991ZM3.68322 5.62391L2.43322 6.87391L3.3171 7.75783L4.5671 6.50783L3.68322 5.62391Z" fill="#151515"/>
</svg>
